<?xml version="1.0" encoding="UTF-8"?>
<!DOCTYPE svg PUBLIC "-//W3C//DTD SVG 1.1//EN" "http://www.w3.org/Graphics/SVG/1.1/DTD/svg11.dtd">
<svg xmlns="http://www.w3.org/2000/svg" version="1.1" width="1500px" height="1500px" style="shape-rendering:geometricPrecision; text-rendering:geometricPrecision; image-rendering:optimizeQuality; fill-rule:evenodd; clip-rule:evenodd" xmlns:xlink="http://www.w3.org/1999/xlink">
<g><path style="opacity:0.966" fill="#f2f3f1" d="M 735.5,43.5 C 764.343,40.9001 780.343,53.9001 783.5,82.5C 783.487,96.8657 777.487,107.866 765.5,115.5C 763.626,120.455 765.292,122.622 770.5,122C 774.985,108.922 783.318,105.588 795.5,112C 800.09,117.527 801.257,123.694 799,130.5C 796.067,136.526 793.567,142.693 791.5,149C 792.211,153.922 794.378,158.089 798,161.5C 800.767,171.431 797.267,178.264 787.5,182C 784.406,182.652 781.406,182.318 778.5,181C 776.507,179.001 774.173,177.501 771.5,176.5C 758.937,183.508 745.603,185.341 731.5,182C 703.378,170.588 693.211,150.088 701,120.5C 704.183,114.796 707.35,109.129 710.5,103.5C 698.219,74.6387 706.552,54.6387 735.5,43.5 Z M 743.5,72.5 C 749.681,73.0127 752.681,76.3461 752.5,82.5C 753.172,88.4853 750.505,91.8186 744.5,92.5C 735.577,90.3175 732.743,84.9842 736,76.5C 738.255,74.5012 740.755,73.1679 743.5,72.5 Z M 730.5,129.5 C 731.552,129.351 732.552,129.517 733.5,130C 737.923,136.428 743.09,142.261 749,147.5C 750.505,149.298 750.672,151.132 749.5,153C 740.023,155.18 732.856,152.014 728,143.5C 726.911,138.444 727.744,133.778 730.5,129.5 Z"/></g>
<g><path style="opacity:0.965" fill="#f2f3f1" d="M 933.5,52.5 C 946.306,53.6938 958.973,55.8604 971.5,59C 995.908,67.4518 1006.41,84.6184 1003,110.5C 998.607,126.56 988.44,137.06 972.5,142C 966.862,143.015 961.195,143.849 955.5,144.5C 950.618,142.699 945.618,141.866 940.5,142C 938.106,143.952 936.606,146.452 936,149.5C 934.765,159.675 932.765,169.675 930,179.5C 925.614,187.108 919.114,189.942 910.5,188C 901.9,184.303 898.4,177.803 900,168.5C 907.394,131.594 915.727,94.927 925,58.5C 927.322,55.6047 930.155,53.6047 933.5,52.5 Z M 954.5,86.5 C 962.348,87.0049 968.181,90.6716 972,97.5C 971.788,110.383 965.288,115.216 952.5,112C 949.943,111.315 948.109,109.815 947,107.5C 947.646,101.553 948.312,95.5531 949,89.5C 950.719,88.1312 952.552,87.1312 954.5,86.5 Z"/></g>
<g><path style="opacity:0.966" fill="#f2f3f1" d="M 511.5,62.5 C 514.187,62.3359 516.854,62.5026 519.5,63C 548.649,95.4669 575.483,129.634 600,165.5C 602.884,178.09 598.051,185.423 585.5,187.5C 582.567,187.534 579.9,186.701 577.5,185C 574.308,180.296 570.642,175.962 566.5,172C 564.134,170.767 561.634,169.934 559,169.5C 546.227,172.902 533.394,176.068 520.5,179C 510.236,183.341 505.403,191.174 506,202.5C 504.878,204.624 503.378,206.457 501.5,208C 483.565,212.627 475.732,205.793 478,187.5C 484.451,150.125 491.118,112.792 498,75.5C 500.442,68.8884 504.942,64.555 511.5,62.5 Z M 522.5,118.5 C 524.903,118.393 526.736,119.393 528,121.5C 530.95,126.118 534.284,130.452 538,134.5C 540.84,136.951 541.006,139.451 538.5,142C 532.139,144.727 525.639,145.561 519,144.5C 518.855,135.659 520.022,126.992 522.5,118.5 Z"/></g>
<g><path style="opacity:0.966" fill="#f2f3f1" d="M 1120.5,115.5 C 1133.9,115.066 1140.57,121.566 1140.5,135C 1138.31,173.165 1136.15,211.332 1134,249.5C 1130.89,262.914 1122.72,267.414 1109.5,263C 1108,261.5 1106.5,260 1105,258.5C 1103.74,251.606 1103.07,244.606 1103,237.5C 1101.65,232.815 1098.82,229.315 1094.5,227C 1083.94,223.054 1073.94,218.054 1064.5,212C 1058,208.631 1051.66,208.965 1045.5,213C 1034.57,223.651 1025.07,222.484 1017,209.5C 1016.15,205.375 1016.48,201.375 1018,197.5C 1048.54,171.955 1079.38,146.788 1110.5,122C 1113.73,119.56 1117.06,117.394 1120.5,115.5 Z M 1105.5,166.5 C 1106.78,167.694 1107.44,169.36 1107.5,171.5C 1106.23,179.452 1105.4,187.452 1105,195.5C 1104.44,196.022 1103.77,196.355 1103,196.5C 1095.62,193.56 1088.78,189.727 1082.5,185C 1090.07,178.59 1097.73,172.423 1105.5,166.5 Z"/></g>
<g><path style="opacity:0.954" fill="#f2f3f1" d="M 364.5,119.5 C 370.831,119.915 375.997,122.582 380,127.5C 397.254,159.008 414.254,190.674 431,222.5C 434.462,238.034 428.296,245.201 412.5,244C 408.421,241.925 404.921,239.092 402,235.5C 384.965,204.772 368.298,173.772 352,142.5C 347.892,130.035 352.058,122.369 364.5,119.5 Z"/></g>
<g><path style="opacity:0.964" fill="#f2f3f1" d="M 264.5,189.5 C 288.437,186.712 304.937,196.378 314,218.5C 315.666,227.475 315.999,236.475 315,245.5C 315.833,246.333 316.667,247.167 317.5,248C 329.321,251.94 340.988,256.273 352.5,261C 360.521,266.643 362.688,274.143 359,283.5C 353.331,289.212 346.497,291.045 338.5,289C 323.594,283.474 308.761,278.64 294,274.5C 294.398,276.631 295.398,278.631 297,280.5C 305.165,288.321 312.165,296.988 318,306.5C 319.554,316.217 315.72,323.05 306.5,327C 303.072,327.701 299.738,327.368 296.5,326C 292.701,323.203 289.201,320.036 286,316.5C 266,293.167 246,269.833 226,246.5C 222.837,242.844 220.171,238.844 218,234.5C 217.163,230.705 217.496,227.039 219,223.5C 230.987,207.649 246.153,196.316 264.5,189.5 Z M 270.5,221.5 C 278.989,220.733 283.322,224.566 283.5,233C 282.984,240.685 278.984,245.519 271.5,247.5C 264.975,244.475 260.308,239.641 257.5,233C 260.201,227.121 264.535,223.288 270.5,221.5 Z"/></g>
<g><path style="opacity:0.959" fill="#f2f3f1" d="M 1251.5,218.5 C 1271.76,217.965 1287.59,225.965 1299,242.5C 1306.27,253.916 1304.43,263.416 1293.5,271C 1288.31,273.226 1283.31,272.893 1278.5,270C 1273.5,264.333 1268.5,258.667 1263.5,253C 1256.72,249.892 1252.39,251.892 1250.5,259C 1252.21,266.116 1254.71,272.949 1258,279.5C 1264.63,300.096 1259.79,317.262 1243.5,331C 1215.83,345.884 1193.33,340.384 1176,314.5C 1170.8,306.406 1169.14,297.739 1171,288.5C 1175.65,281.501 1182.15,279.001 1190.5,281C 1193.1,281.883 1195.27,283.383 1197,285.5C 1200.46,292.247 1204.29,298.747 1208.5,305C 1218.9,309.97 1225.9,306.97 1229.5,296C 1225.62,287.037 1222.12,277.87 1219,268.5C 1215.66,251.521 1220.83,237.688 1234.5,227C 1239.72,223.105 1245.39,220.271 1251.5,218.5 Z"/></g>
<g><path style="opacity:0.992" fill="#f2f3f1" d="M 646.5,293.5 C 744.617,291.915 829.617,324.082 901.5,390C 979.035,464.222 1026.2,554.722 1043,661.5C 1046.33,686.75 1048.33,712.083 1049,737.5C 1048.53,738.931 1047.7,740.097 1046.5,741C 1041.07,742.058 1035.57,742.558 1030,742.5C 968.167,741.169 906.333,741.169 844.5,742.5C 838.768,742.562 833.102,742.062 827.5,741C 826.667,740.167 825.833,739.333 825,738.5C 823.298,617.035 784.965,509.035 710,414.5C 670.841,369.006 622.507,337.672 565,320.5C 564.333,316.833 564.333,313.167 565,309.5C 566.637,307.19 568.804,305.69 571.5,305C 596.475,300.058 621.475,296.225 646.5,293.5 Z"/></g>
<g><path style="opacity:0.989" fill="#f2f3f1" d="M 859.5,296.5 C 956.164,304.017 1040.16,340.183 1111.5,405C 1205.8,493.804 1252.3,603.304 1251,733.5C 1250.77,736.458 1249.6,738.958 1247.5,741C 1243.39,741.941 1239.22,742.441 1235,742.5C 1190.67,741.172 1146.33,741.172 1102,742.5C 1096.67,742.899 1091.67,741.899 1087,739.5C 1085.38,629.993 1054.05,529.993 993,439.5C 955.708,387.539 910.041,344.539 856,310.5C 853.267,304.722 854.434,300.056 859.5,296.5 Z"/></g>
<g><path style="opacity:0.958" fill="#f2f3f1" d="M 153.5,298.5 C 169.407,298.274 175.241,305.941 171,321.5C 166.249,329.337 161.249,337.004 156,344.5C 155.613,348.165 157.113,350.998 160.5,353C 163.833,355 167.167,357 170.5,359C 171.5,359.667 172.5,359.667 173.5,359C 179.034,352.098 184.201,344.932 189,337.5C 197.251,330.674 205.251,331.007 213,338.5C 214.844,343.123 214.844,347.789 213,352.5C 209.448,359.382 205.115,365.716 200,371.5C 198.627,373.695 198.294,376.029 199,378.5C 202.408,381.453 205.908,384.287 209.5,387C 211.695,388.373 214.029,388.706 216.5,388C 221.035,382.431 225.201,376.597 229,370.5C 233.18,364.162 239.013,360.495 246.5,359.5C 260.461,362.422 264.627,370.422 259,383.5C 251.333,394.833 243.667,406.167 236,417.5C 229.218,428.761 220.051,431.261 208.5,425C 178.111,404.61 148.278,383.444 119,361.5C 116.212,355.291 115.879,348.958 118,342.5C 126.913,330.342 135.579,318.008 144,305.5C 146.825,302.524 149.992,300.191 153.5,298.5 Z"/></g>
<g><path style="opacity:0.957" fill="#f2f3f1" d="M 1360.5,325.5 C 1365.75,325.875 1369.92,328.208 1373,332.5C 1383.25,348.666 1393.25,365 1403,381.5C 1408.93,398.149 1403.1,406.649 1385.5,407C 1383.1,406.269 1380.93,405.102 1379,403.5C 1376.87,399.411 1374.37,395.577 1371.5,392C 1369.64,390.699 1367.64,390.365 1365.5,391C 1340.37,405.735 1315.37,420.735 1290.5,436C 1273.73,439.884 1266.56,433.384 1269,416.5C 1270.38,414.246 1271.88,412.08 1273.5,410C 1298.75,393.791 1324.25,377.958 1350,362.5C 1350.67,360.833 1350.67,359.167 1350,357.5C 1345.23,350.854 1343.56,343.521 1345,335.5C 1348.17,329.001 1353.34,325.668 1360.5,325.5 Z"/></g>
<g><path style="opacity:0.992" fill="#f2f3f1" d="M 506.5,354.5 C 556.526,352.121 600.859,366.621 639.5,398C 685.332,436.178 720.165,482.678 744,537.5C 772.075,600.878 786.742,667.212 788,736.5C 786.272,739.953 783.438,741.786 779.5,742C 776.167,742.167 772.833,742.333 769.5,742.5C 713.667,741.174 657.834,741.174 602,742.5C 598.167,742.333 594.333,742.167 590.5,742C 588.481,741.55 586.648,740.717 585,739.5C 582.72,715.816 580.053,692.149 577,668.5C 568.372,605.918 546.039,548.918 510,497.5C 493.288,475.116 473.121,456.616 449.5,442C 429.447,430.255 407.781,424.588 384.5,425C 376.1,419.921 375.433,413.921 382.5,407C 408.077,387.042 436.41,372.042 467.5,362C 480.457,358.507 493.457,356.007 506.5,354.5 Z"/></g>
<g><path style="opacity:0.966" fill="#f2f3f1" d="M 109.5,449.5 C 152.045,453.546 176.045,476.713 181.5,519C 178.617,539.48 172.617,558.98 163.5,577.5C 159.195,581.274 154.195,582.44 148.5,581C 114.5,569.667 80.5,558.333 46.5,547C 37.3031,543.101 34.1364,536.267 37,526.5C 40.1575,508.347 46.8242,491.68 57,476.5C 70.8005,460.184 88.3005,451.184 109.5,449.5 Z M 104.5,482.5 C 130.873,481.375 145.873,493.875 149.5,520C 148.719,528.794 146.385,537.128 142.5,545C 119.067,538.189 95.9006,530.355 73,521.5C 73.5386,507.279 79.7052,496.112 91.5,488C 95.7168,485.549 100.05,483.715 104.5,482.5 Z"/></g>
<g><path style="opacity:0.993" fill="#f2f3f1" d="M 380.5,461.5 C 403.17,460.114 423.504,466.28 441.5,480C 464.884,497.953 483.717,519.787 498,545.5C 531.244,606.296 546.41,671.129 543.5,740C 541.608,740.973 539.608,741.64 537.5,742C 531.667,742.167 525.833,742.333 520,742.5C 436.667,741.167 353.333,741.167 270,742.5C 264.167,742.333 258.333,742.167 252.5,742C 249.966,741.484 247.8,740.317 246,738.5C 241.85,670.249 254.517,605.249 284,543.5C 298.857,513.308 320.691,489.475 349.5,472C 359.446,466.963 369.78,463.463 380.5,461.5 Z"/></g>
<g><path style="opacity:0.962" fill="#f2f3f1" d="M 1429.5,477.5 C 1437.96,476.03 1444.12,479.03 1448,486.5C 1453.27,501.988 1457.94,517.655 1462,533.5C 1464.08,546.922 1458.25,553.256 1444.5,552.5C 1438.45,551.623 1434.28,548.289 1432,542.5C 1429.08,533.877 1426.41,525.21 1424,516.5C 1417.1,514.007 1410.6,515.007 1404.5,519.5C 1403.1,520.852 1402.44,522.519 1402.5,524.5C 1405.3,533.383 1407.64,542.383 1409.5,551.5C 1406.92,563.128 1399.92,566.961 1388.5,563C 1385.57,560.736 1383.4,557.902 1382,554.5C 1379.46,547.217 1377.13,539.884 1375,532.5C 1372.44,529.651 1369.27,528.817 1365.5,530C 1362.23,531.202 1358.89,532.202 1355.5,533C 1353.64,534.182 1352.64,535.849 1352.5,538C 1354.87,545.439 1357.04,552.939 1359,560.5C 1361.55,578.28 1354.05,585.447 1336.5,582C 1333.57,579.736 1331.4,576.902 1330,573.5C 1326,560.833 1322,548.167 1318,535.5C 1315.68,528.319 1316.02,521.319 1319,514.5C 1321.23,512.3 1323.73,510.467 1326.5,509C 1360.92,498.358 1395.25,487.858 1429.5,477.5 Z"/></g>
<g><path style="opacity:0.965" fill="#f2f3f1" d="M 132.5,632.5 C 150.748,631.232 157.248,639.232 152,656.5C 147.652,660.758 142.486,663.592 136.5,665C 134.622,666.543 133.122,668.376 132,670.5C 131.771,687.558 131.104,704.558 130,721.5C 135.149,724.331 140.315,727.164 145.5,730C 152.202,735.45 154.035,742.284 151,750.5C 148.607,757.57 143.773,760.403 136.5,759C 130.736,757.285 125.07,755.285 119.5,753C 87.5,738 55.5,723 23.5,708C 21.04,706.542 18.8734,704.709 17,702.5C 15.4372,697.282 15.1038,691.949 16,686.5C 21.3889,681.219 27.5555,677.053 34.5,674C 67.1448,659.849 99.8115,646.016 132.5,632.5 Z M 93.5,683.5 C 95.9115,683.137 97.4115,684.137 98,686.5C 98.6667,691.833 98.6667,697.167 98,702.5C 97.6258,703.416 97.1258,704.25 96.5,705C 87.2327,703.041 78.5661,699.374 70.5,694C 78.257,690.451 85.9237,686.951 93.5,683.5 Z"/></g>
<g><path style="opacity:0.963" fill="#f2f3f1" d="M 1460.5,632.5 C 1469.8,632.731 1476.96,636.731 1482,644.5C 1482.44,656.413 1476.6,663.247 1464.5,665C 1439.5,666.053 1414.5,667.053 1389.5,668C 1385.08,668.208 1380.75,668.874 1376.5,670C 1375.02,672.247 1374.35,674.747 1374.5,677.5C 1375.99,685.451 1376.49,693.451 1376,701.5C 1371.63,713.738 1363.46,717.238 1351.5,712C 1347.05,708.603 1344.55,704.103 1344,698.5C 1343.75,683.488 1343.25,668.488 1342.5,653.5C 1342.46,644.085 1347.12,638.918 1356.5,638C 1391.35,636.554 1426.01,634.72 1460.5,632.5 Z"/></g>
<g><path style="opacity:0.957" fill="#f2f3f1" d="M 1356.5,777.5 C 1392.5,777.333 1428.5,777.5 1464.5,778C 1471.45,779.222 1477.28,782.388 1482,787.5C 1482.67,807.5 1482.67,827.5 1482,847.5C 1478.45,850.719 1474.61,853.552 1470.5,856C 1462.18,857.572 1456.02,854.738 1452,847.5C 1451.92,837.427 1451.26,827.427 1450,817.5C 1445.45,809.76 1438.95,807.594 1430.5,811C 1429.67,811.833 1428.83,812.667 1428,813.5C 1427.67,821.833 1427.33,830.167 1427,838.5C 1424.75,849.834 1417.91,854.001 1406.5,851C 1403.27,849.437 1401.1,846.937 1400,843.5C 1398.79,832.882 1398.12,822.215 1398,811.5C 1397.5,810.333 1396.67,809.5 1395.5,809C 1389.5,808.333 1383.5,808.333 1377.5,809C 1376.67,809.833 1375.83,810.667 1375,811.5C 1374.67,821.833 1374.33,832.167 1374,842.5C 1371.71,852.439 1365.55,856.272 1355.5,854C 1348.12,852.613 1344.29,848.113 1344,840.5C 1343.33,824.167 1343.33,807.833 1344,791.5C 1344.55,783.455 1348.72,778.788 1356.5,777.5 Z"/></g>
<g><path style="opacity:0.973" fill="#f2f3f1" d="M 250.5,793.5 C 369.167,793.333 487.834,793.5 606.5,794C 614.572,794.901 622.572,796.234 630.5,798C 645.685,802.284 661.019,805.951 676.5,809C 698.165,812.311 719.832,812.311 741.5,809C 754.608,806.639 767.608,803.806 780.5,800.5C 783.324,800.83 785.991,801.664 788.5,803C 798.298,814.466 808.464,825.633 819,836.5C 822.788,842.137 823.454,848.137 821,854.5C 808.672,884.829 787.506,906.662 757.5,920C 750.08,923.14 742.414,925.473 734.5,927C 718.218,928.788 701.885,929.788 685.5,930C 656.166,930.058 626.833,930.058 597.5,930C 553.575,938.256 526.075,964.09 515,1007.5C 514.497,1012.19 513.83,1016.86 513,1021.5C 512.167,1023.67 510.667,1025.17 508.5,1026C 496.736,1026.96 485.07,1026.62 473.5,1025C 473.578,979.51 491.578,942.844 527.5,915C 546.756,901.377 568.089,892.711 591.5,889C 635.816,887.739 680.15,887.072 724.5,887C 746.853,883 763.853,871.334 775.5,852C 774.026,848.017 771.193,845.851 767,845.5C 732.661,853.396 698.161,854.23 663.5,848C 642.135,842.327 620.469,838.327 598.5,836C 499.167,835.333 399.833,835.333 300.5,836C 296.767,836.066 293.267,836.899 290,838.5C 289.296,840.278 288.796,842.112 288.5,844C 308.856,973.93 375.856,1071.26 489.5,1136C 540.731,1163.41 595.397,1178.41 653.5,1181C 716.5,1181.67 779.5,1181.67 842.5,1181C 965.107,1172.79 1063.27,1119.96 1137,1022.5C 1184.39,954.837 1209.55,879.504 1212.5,796.5C 1213.67,795.416 1215,794.583 1216.5,794C 1226.83,793.333 1237.17,793.333 1247.5,794C 1248.93,794.465 1250.1,795.299 1251,796.5C 1250.39,902.046 1216.05,994.713 1148,1074.5C 1067.11,1166.02 965.278,1215.52 842.5,1223C 780.833,1223.67 719.167,1223.67 657.5,1223C 522.099,1215.56 412.933,1158.72 330,1052.5C 273.994,976.48 245.994,891.147 246,796.5C 247.409,795.219 248.909,794.219 250.5,793.5 Z"/></g>
<g><path style="opacity:0.968" fill="#f2f3f1" d="M 970.5,793.5 C 978.84,793.334 987.173,793.5 995.5,794C 998.576,794.346 1001.58,795.012 1004.5,796C 1005.7,796.903 1006.53,798.069 1007,799.5C 1003.14,869.622 970.977,922.122 910.5,957C 873.665,976.306 834.665,982.972 793.5,977C 790.966,976.484 788.8,975.317 787,973.5C 784.153,962.919 783.82,952.253 786,941.5C 788.786,939.019 792.12,937.685 796,937.5C 856.685,944.404 905.352,923.737 942,875.5C 957.554,851.502 965.888,825.168 967,796.5C 968.145,795.364 969.312,794.364 970.5,793.5 Z"/></g>
<g><path style="opacity:0.969" fill="#f2f3f1" d="M 1050.5,793.5 C 1060.88,793.162 1071.22,793.662 1081.5,795C 1085.93,797.262 1087.93,800.929 1087.5,806C 1079.63,900.809 1035.63,973.142 955.5,1023C 903.719,1052.11 848.386,1063.11 789.5,1056C 788.667,1055.17 787.833,1054.33 787,1053.5C 784.622,1044.67 783.955,1035.67 785,1026.5C 785.093,1023.99 785.926,1021.83 787.5,1020C 807.782,1018.81 828.115,1017.48 848.5,1016C 942.955,1001.21 1005.79,948.708 1037,858.5C 1042.21,839.853 1045.21,820.853 1046,801.5C 1046.25,797.995 1047.75,795.329 1050.5,793.5 Z"/></g>
<g><path style="opacity:0.969" fill="#f2f3f1" d="M 1133.5,793.5 C 1142.88,793.184 1152.22,793.684 1161.5,795C 1165.84,797.286 1167.84,800.953 1167.5,806C 1160.06,916.23 1113.06,1004.9 1026.5,1072C 957.64,1120.39 880.973,1142.39 796.5,1138C 790.299,1137.67 786.799,1134.51 786,1128.5C 784.478,1119.46 784.478,1110.46 786,1101.5C 786.833,1099.33 788.333,1097.83 790.5,1097C 891.978,1103.3 977.812,1070.13 1048,997.5C 1097.84,939.655 1124.34,872.488 1127.5,796C 1129.61,795.155 1131.61,794.322 1133.5,793.5 Z"/></g>
<g><path style="opacity:0.963" fill="#f2f3f1" d="M 130.5,819.5 C 143.989,816.825 151.323,822.325 152.5,836C 152.025,839.737 150.858,843.237 149,846.5C 132.167,861.333 115.333,876.167 98.5,891C 93.6776,894.911 88.6776,898.578 83.5,902C 85.9088,902.935 88.4088,903.435 91,903.5C 110.369,900.057 129.869,898.224 149.5,898C 156.961,900.397 160.961,905.563 161.5,913.5C 160.144,924.021 154.144,929.521 143.5,930C 109.274,933.321 75.1077,937.155 41,941.5C 30.7653,941.264 24.932,936.097 23.5,926C 24.0725,922.616 25.2392,919.449 27,916.5C 45.6101,898.217 65.1101,881.05 85.5,865C 87.8745,862.961 89.8745,860.628 91.5,858C 89.6341,857.015 87.6341,856.515 85.5,856.5C 67.4467,858.37 49.4467,860.703 31.5,863.5C 17.6096,861.113 12.4429,853.113 16,839.5C 20.7591,833.685 26.9258,830.518 34.5,830C 66.745,827.398 98.745,823.898 130.5,819.5 Z"/></g>
<g><path style="opacity:0.965" fill="#f2f3f1" d="M 1345.5,908.5 C 1380.96,916.699 1416.3,925.532 1451.5,935C 1464.24,937.392 1469.41,944.892 1467,957.5C 1465.12,968.038 1462.45,978.371 1459,988.5C 1447.31,1011.76 1428.81,1019.92 1403.5,1013C 1391.09,1008.25 1382.25,999.755 1377,987.5C 1375.69,986.427 1374.19,985.76 1372.5,985.5C 1361.71,989.114 1350.71,991.947 1339.5,994C 1324.55,996.047 1317.71,989.547 1319,974.5C 1319.88,971.898 1321.38,969.731 1323.5,968C 1327.93,965.449 1332.6,963.449 1337.5,962C 1350.93,958.475 1364.27,954.642 1377.5,950.5C 1367.17,946.408 1356.51,942.908 1345.5,940C 1332.89,934.977 1330.05,926.477 1337,914.5C 1339.32,911.605 1342.16,909.605 1345.5,908.5 Z M 1412.5,957.5 C 1417.42,958.877 1422.42,960.044 1427.5,961C 1431.86,963.226 1433.36,966.726 1432,971.5C 1428.37,982.733 1421.2,985.9 1410.5,981C 1408.41,978.737 1407.08,976.07 1406.5,973C 1407.22,969.539 1407.72,966.039 1408,962.5C 1409.02,960.313 1410.52,958.646 1412.5,957.5 Z"/></g>
<g><path style="opacity:0.967" fill="#f2f3f1" d="M 161.5,979.5 C 173.675,977.41 180.675,982.41 182.5,994.5C 181.945,998.054 180.779,1001.39 179,1004.5C 171.666,1009.5 169.333,1016.17 172,1024.5C 178.386,1037 184.386,1049.66 190,1062.5C 191.214,1064.05 192.714,1065.22 194.5,1066C 200.5,1066.33 206.5,1066.67 212.5,1067C 222.789,1072.66 225.289,1080.82 220,1091.5C 217.658,1094.75 214.491,1096.59 210.5,1097C 198.316,1097.76 186.149,1097.6 174,1096.5C 144.891,1099.21 115.724,1100.04 86.5,1099C 76.5389,1095.25 72.7055,1088.08 75,1077.5C 76.0804,1075 77.4138,1072.67 79,1070.5C 103.04,1043.46 126.707,1016.13 150,988.5C 153.161,984.491 156.994,981.491 161.5,979.5 Z M 144.5,1043.5 C 148.142,1048.1 151.308,1053.1 154,1058.5C 155.091,1063.1 153.257,1065.93 148.5,1067C 140.815,1067.39 133.149,1067.05 125.5,1066C 132.42,1058.92 138.753,1051.42 144.5,1043.5 Z"/></g>
<g><path style="opacity:0.954" fill="#f2f3f1" d="M 1296.5,1041.5 C 1300.94,1041.21 1305.27,1041.71 1309.5,1043C 1340.52,1059.51 1371.85,1075.51 1403.5,1091C 1412.2,1096.77 1414.7,1104.6 1411,1114.5C 1406.48,1120.18 1400.65,1122.68 1393.5,1122C 1359.68,1104.92 1326.01,1087.59 1292.5,1070C 1286.74,1064.76 1284.91,1058.26 1287,1050.5C 1288.87,1046.01 1292.04,1043.01 1296.5,1041.5 Z"/></g>
<g><path style="opacity:0.965" fill="#f2f3f1" d="M 1254.5,1114.5 C 1262.14,1113.43 1267.98,1116.09 1272,1122.5C 1288.94,1159.38 1305.61,1196.38 1322,1233.5C 1323.3,1245.25 1318.13,1251.92 1306.5,1253.5C 1265.8,1241.77 1225.46,1228.93 1185.5,1215C 1176.6,1206.92 1176.27,1198.59 1184.5,1190C 1187.67,1188.54 1191,1187.71 1194.5,1187.5C 1199.04,1188.41 1203.54,1189.41 1208,1190.5C 1211.13,1190.67 1213.96,1189.84 1216.5,1188C 1227.34,1177.82 1237.51,1166.99 1247,1155.5C 1248.26,1153.49 1249.09,1151.32 1249.5,1149C 1247.81,1144.46 1245.98,1139.96 1244,1135.5C 1241.36,1125.2 1244.86,1118.2 1254.5,1114.5 Z M 1262.5,1185.5 C 1263.82,1185.33 1264.99,1185.66 1266,1186.5C 1269.77,1193.71 1273.27,1201.05 1276.5,1208.5C 1274.96,1210.45 1272.96,1210.95 1270.5,1210C 1263.64,1207.99 1256.97,1205.49 1250.5,1202.5C 1249.39,1201.28 1249.22,1199.94 1250,1198.5C 1253.7,1193.64 1257.86,1189.3 1262.5,1185.5 Z"/></g>
<g><path style="opacity:0.962" fill="#f2f3f1" d="M 277.5,1162.5 C 288.584,1161.54 294.917,1166.54 296.5,1177.5C 296.056,1181.62 294.556,1185.29 292,1188.5C 264.127,1212.71 235.96,1236.54 207.5,1260C 200.957,1263.49 194.623,1263.16 188.5,1259C 180,1248.5 171.5,1238 163,1227.5C 153.503,1206 157.67,1187.5 175.5,1172C 191.556,1163.16 207.889,1162.49 224.5,1170C 230.5,1174.67 235.833,1180 240.5,1186C 242.971,1186.71 245.305,1186.37 247.5,1185C 256.574,1176.07 266.574,1168.57 277.5,1162.5 Z M 200.5,1195.5 C 208.296,1196.98 213.629,1201.31 216.5,1208.5C 213.21,1214.96 208.377,1219.96 202,1223.5C 191.685,1218.21 188.685,1210.21 193,1199.5C 195.255,1197.5 197.755,1196.17 200.5,1195.5 Z"/></g>
<g><path style="opacity:0.963" fill="#f2f3f1" d="M 979.5,1306.5 C 1004.7,1307.88 1020.86,1320.55 1028,1344.5C 1032.18,1360.21 1036.51,1375.88 1041,1391.5C 1043.64,1411.72 1036.8,1427.89 1020.5,1440C 1002.77,1448.49 985.105,1448.15 967.5,1439C 959.313,1433.13 953.813,1425.3 951,1415.5C 942.618,1395.47 937.785,1374.64 936.5,1353C 937.157,1332.71 946.824,1318.38 965.5,1310C 970.224,1308.51 974.891,1307.34 979.5,1306.5 Z M 979.5,1338.5 C 984.677,1337.7 989.177,1339.04 993,1342.5C 1000.15,1359.6 1005.48,1377.27 1009,1395.5C 1011.25,1407.76 1006.09,1414.43 993.5,1415.5C 987.408,1414.57 983.241,1411.24 981,1405.5C 976.07,1392.45 972.07,1379.11 969,1365.5C 967.67,1359.55 967.337,1353.55 968,1347.5C 971.045,1343.41 974.878,1340.41 979.5,1338.5 Z"/></g>
<g><path style="opacity:0.957" fill="#f2f3f1" d="M 512.5,1309.5 C 527.6,1308.95 541.767,1312.29 555,1319.5C 557.254,1322.43 558.421,1325.76 558.5,1329.5C 550.275,1366.4 541.108,1403.07 531,1439.5C 524.772,1451.5 515.938,1453.66 504.5,1446C 502.191,1443.29 500.857,1440.12 500.5,1436.5C 507.147,1405.08 514.814,1373.91 523.5,1343C 523.01,1341.02 522.01,1339.35 520.5,1338C 506.9,1335.6 502.4,1327.77 507,1314.5C 508.406,1312.26 510.239,1310.59 512.5,1309.5 Z"/></g>
<g><path style="opacity:0.958" fill="#f2f3f1" d="M 365.5,1316.5 C 388.938,1316.44 399.104,1328.11 396,1351.5C 392.39,1363.6 384.224,1369.93 371.5,1370.5C 351.186,1368.69 342.02,1357.69 344,1337.5C 347.776,1326.89 354.943,1319.89 365.5,1316.5 Z"/></g>
<g><path style="opacity:0.955" fill="#f2f3f1" d="M 1122.5,1316.5 C 1141.65,1315.06 1152.98,1323.73 1156.5,1342.5C 1154.13,1359.03 1144.63,1368.37 1128,1370.5C 1115.22,1369.04 1106.55,1362.37 1102,1350.5C 1098.93,1332.94 1105.77,1321.6 1122.5,1316.5 Z"/></g>
<g><path style="opacity:0.964" fill="#f2f3f1" d="M 659.5,1327.5 C 683.479,1327.4 700.646,1338.06 711,1359.5C 715.343,1374.77 714.009,1389.43 707,1403.5C 696,1421.5 685,1439.5 674,1457.5C 668.292,1467.63 660.125,1470.46 649.5,1466C 643.83,1460.72 641.996,1454.22 644,1446.5C 646.912,1440.34 650.079,1434.34 653.5,1428.5C 652.687,1427.19 651.687,1426.02 650.5,1425C 627.664,1417.16 615.997,1401.16 615.5,1377C 615.597,1357.8 623.931,1343.46 640.5,1334C 646.715,1331.1 653.049,1328.93 659.5,1327.5 Z M 662.5,1358.5 C 674.329,1359.33 680.995,1365.66 682.5,1377.5C 680.668,1392.74 672.334,1398.58 657.5,1395C 646.461,1387.87 643.961,1378.37 650,1366.5C 653.378,1362.41 657.545,1359.74 662.5,1358.5 Z"/></g>
<g><path style="opacity:0.966" fill="#f2f3f1" d="M 822.5,1327.5 C 843.614,1327.13 857.781,1336.8 865,1356.5C 867.472,1366.5 866.472,1376.16 862,1385.5C 861.333,1388.17 861.333,1390.83 862,1393.5C 878.565,1419.13 875.398,1441.96 852.5,1462C 834.101,1471.19 816.101,1470.52 798.5,1460C 785.084,1447.76 779.584,1432.59 782,1414.5C 785.506,1406.16 789.006,1397.82 792.5,1389.5C 781.53,1364.59 787.53,1345.09 810.5,1331C 814.543,1329.51 818.543,1328.34 822.5,1327.5 Z M 823.5,1358.5 C 833.157,1357.66 836.99,1361.99 835,1371.5C 832.646,1377.09 828.479,1378.93 822.5,1377C 818.695,1372.91 817.528,1368.08 819,1362.5C 820.25,1360.81 821.75,1359.47 823.5,1358.5 Z M 820.5,1409.5 C 831.035,1407.04 838.202,1410.71 842,1420.5C 841.993,1430.85 836.993,1437.52 827,1440.5C 813.569,1436.31 809.236,1427.64 814,1414.5C 815.965,1412.45 818.132,1410.78 820.5,1409.5 Z"/></g>
</svg>
